<svg width="69" height="69" viewBox="0 0 69 69" fill="none" xmlns="http://www.w3.org/2000/svg">
<path d="M14.1163 33.9071C11.1309 30.8786 9.28076 26.6722 9.28076 22.0873C9.28076 12.7913 16.8075 5.2619 26.1002 5.2619C35.3929 5.2619 42.9196 12.7913 42.9196 22.0873C42.9196 31.3833 35.3929 38.9127 26.1002 38.9127H9.28076L14.1163 33.9071Z" fill="#CAD7E0"/>
<path d="M21.0537 40.1746H9.28014C8.77556 40.1746 8.31303 39.8802 8.10279 39.4175C7.89254 38.9548 8.01869 38.4079 8.35508 38.0294L12.3497 33.8651C9.57448 30.5841 8.01869 26.4619 8.01869 22.0873C8.01869 12.1183 16.1341 4 26.0996 4C34.0467 4 40.9847 9.08968 43.3395 16.6611C43.5497 17.3341 43.1713 18.0492 42.4985 18.2595C41.8257 18.4698 41.1109 18.0913 40.9006 17.4183C38.8823 10.8984 32.9535 6.52381 26.0996 6.52381C17.5217 6.52381 10.5416 13.5063 10.5416 22.0873C10.5416 26.2095 12.1394 30.0794 14.9987 33.0238C15.4613 33.5286 15.5033 34.2857 14.9987 34.7905L12.2656 37.6508H21.0537C21.7686 37.6508 22.3152 38.1976 22.3152 38.9127C22.3152 39.6278 21.7686 40.1746 21.0537 40.1746Z" fill="#919AA1"/>
<path d="M54.9029 50.7326C57.8883 47.704 59.7384 43.5397 59.7384 38.9127C59.7384 29.6167 52.2118 22.0873 42.919 22.0873C33.6263 22.0873 26.0996 29.6167 26.0996 38.9127C26.0996 48.2088 33.6263 55.7381 42.919 55.7381H59.7384L54.9029 50.7326Z" fill="#CAD7E0"/>
<path d="M59.7387 57H42.9193C32.9537 57 24.8384 48.8817 24.8384 38.9127C24.8384 28.9436 32.9537 20.8254 42.9193 20.8254C52.8848 20.8254 61.0001 28.9436 61.0001 38.9127C61.0001 43.2873 59.4443 47.4095 56.6271 50.6905L60.6217 54.8547C60.9581 55.2333 61.0842 55.7381 60.874 56.2428C60.7058 56.7055 60.2433 57 59.7387 57ZM42.9193 23.3492C34.3413 23.3492 27.3613 30.3317 27.3613 38.9127C27.3613 47.4936 34.3413 54.4762 42.9193 54.4762H56.7532L53.978 51.6159C53.5155 51.1111 53.5155 50.354 53.978 49.8492C56.8794 46.9047 58.4352 43.0349 58.4352 38.9127C58.4772 30.3317 51.4972 23.3492 42.9193 23.3492Z" fill="#919AA1"/>
<path d="M49.2261 37.2302H36.6116C35.8967 37.2302 35.3501 36.6833 35.3501 35.9683C35.3501 35.2532 35.8967 34.7064 36.6116 34.7064H49.2261C49.9409 34.7064 50.4876 35.2532 50.4876 35.9683C50.4876 36.6833 49.9409 37.2302 49.2261 37.2302ZM42.9188 43.5397H36.6116C35.8967 43.5397 35.3501 42.9929 35.3501 42.2778C35.3501 41.5627 35.8967 41.0159 36.6116 41.0159H42.9188C43.6337 41.0159 44.1803 41.5627 44.1803 42.2778C44.1803 42.9929 43.6337 43.5397 42.9188 43.5397ZM49.2261 43.5397C48.8897 43.5397 48.5533 43.4135 48.3431 43.1611C48.0908 42.9508 47.9647 42.6143 47.9647 42.2778C47.9647 42.1937 47.9647 42.1095 48.0067 42.0254C48.0067 41.9413 48.0488 41.8572 48.0908 41.773C48.1329 41.6889 48.1749 41.6468 48.217 41.5627C48.259 41.4786 48.301 41.4365 48.3851 41.3524C48.6795 41.0579 49.1 40.9318 49.5205 41.0159C49.6046 41.0159 49.6887 41.0579 49.7727 41.1C49.8568 41.1421 49.9409 41.1841 49.983 41.2262C50.0671 41.2683 50.1091 41.3103 50.1512 41.3945C50.1932 41.4365 50.2773 41.5206 50.3194 41.6048C50.3614 41.6889 50.4035 41.731 50.4455 41.8151C50.4876 41.8992 50.4876 41.9833 50.5296 42.0675C50.5296 42.1516 50.5717 42.2357 50.5717 42.3199C50.5717 42.6564 50.4455 42.9929 50.1932 43.2032C50.1512 43.2452 50.0671 43.3294 50.025 43.3714C49.9409 43.4135 49.8989 43.4556 49.8148 43.4976C49.7307 43.5397 49.6466 43.5397 49.5625 43.5818C49.3943 43.5397 49.3102 43.5397 49.2261 43.5397Z" fill="#919AA1"/>
</svg>
