<svg width="24" height="25" viewBox="0 0 24 25" fill="none" xmlns="http://www.w3.org/2000/svg">
<path d="M0.831055 20.5056L12.0003 0.842682L23.1696 20.5056H14.7927L12.0003 24.1573L9.20802 20.5056H0.831055Z" fill="white"/>
<path d="M23.8953 20.0843L12.726 0.421348C12.5864 0.168539 12.3072 0 12 0C11.6928 0 11.4136 0.168539 11.274 0.421348L0.104712 20.0843C-0.034904 20.3371 -0.034904 20.6742 0.104712 20.927C0.244328 21.1798 0.52356 21.3483 0.830716 21.3483H8.78883L11.3298 24.6629C11.4974 24.8596 11.7208 25 12 25C12.2792 25 12.5026 24.8876 12.6702 24.6629L15.2112 21.3483H23.1693C23.4764 21.3483 23.7557 21.1798 23.8953 20.927C24.0349 20.6742 24.0349 20.3371 23.8953 20.0843ZM14.7923 19.6629C14.541 19.6629 14.2897 19.7753 14.1222 20L12.5026 22.1067L12.2792 11.5169C12.2792 11.1517 12.0279 10.7865 11.637 10.7022C11.1902 10.5899 10.7435 10.8708 10.6318 11.3202L8.56545 19.6629H2.28272L12 2.52809L21.7173 19.6629H14.7923Z" fill="#3763FF"/>
</svg>
